<svg width="934" height="605" viewBox="0 0 934 605" fill="none" xmlns="http://www.w3.org/2000/svg">
<style>
    rect {
      fill: white;
    }
    #text {
      fill: black;
    }
    @media (prefers-color-scheme: dark) {
      rect {
        fill: black;
      }
      #text {
        fill: white;
      }
    }
  </style>
<rect width="934" height="605" fill="black"/>
<path d="M392.295 303C392.295 304.92 392.448 306.66 392.755 308.22C393.075 309.767 393.568 311.213 394.235 312.56C394.901 313.893 395.748 315.2 396.775 316.48C397.815 317.76 399.048 319.087 400.475 320.46L397.995 322.86C395.848 321.073 394.001 319.22 392.455 317.3C390.921 315.393 389.741 313.28 388.915 310.96C388.088 308.64 387.675 305.987 387.675 303C387.675 300 388.088 297.34 388.915 295.02C389.741 292.7 390.921 290.587 392.455 288.68C394.001 286.76 395.848 284.913 397.995 283.14L400.475 285.54C399.075 286.887 397.855 288.2 396.815 289.48C395.788 290.747 394.935 292.053 394.255 293.4C393.588 294.747 393.095 296.2 392.775 297.76C392.455 299.32 392.295 301.067 392.295 303ZM541.721 303C541.721 301.067 541.561 299.32 541.241 297.76C540.921 296.2 540.421 294.747 539.741 293.4C539.074 292.053 538.221 290.747 537.181 289.48C536.154 288.2 534.941 286.887 533.541 285.54L536.021 283.14C538.168 284.913 540.008 286.76 541.541 288.68C543.088 290.587 544.274 292.7 545.101 295.02C545.928 297.34 546.341 300 546.341 303C546.341 305.987 545.928 308.64 545.101 310.96C544.274 313.28 543.088 315.393 541.541 317.3C540.008 319.22 538.168 321.073 536.021 322.86L533.541 320.46C534.968 319.087 536.194 317.76 537.221 316.48C538.261 315.2 539.114 313.893 539.781 312.56C540.448 311.213 540.934 309.767 541.241 308.22C541.561 306.66 541.721 304.92 541.721 303Z" fill="#ED8E00"/>
<path id="text" d="M429.539 303.2C429.539 306.04 429.146 308.54 428.359 310.7C427.572 312.847 426.399 314.527 424.839 315.74C423.279 316.94 421.346 317.54 419.039 317.54C416.746 317.54 414.812 316.953 413.239 315.78C411.679 314.593 410.506 312.933 409.719 310.8C408.932 308.653 408.539 306.133 408.539 303.24C408.539 300.387 408.932 297.887 409.719 295.74C410.506 293.58 411.679 291.893 413.239 290.68C414.812 289.453 416.746 288.84 419.039 288.84C421.346 288.84 423.279 289.433 424.839 290.62C426.399 291.807 427.572 293.48 428.359 295.64C429.146 297.787 429.539 300.307 429.539 303.2ZM424.739 303.2C424.739 299.627 424.292 296.947 423.399 295.16C422.519 293.36 421.066 292.46 419.039 292.46C417.012 292.46 415.552 293.367 414.659 295.18C413.779 296.98 413.339 299.667 413.339 303.24C413.339 306.8 413.792 309.473 414.699 311.26C415.606 313.033 417.052 313.92 419.039 313.92C421.092 313.92 422.552 313.027 423.419 311.24C424.299 309.44 424.739 306.76 424.739 303.2ZM434.783 317V313.8H437.883V299.06H434.783V295.88H441.303L442.123 300.78C442.91 299.007 443.883 297.66 445.043 296.74C446.217 295.807 447.723 295.34 449.563 295.34C450.19 295.34 450.75 295.393 451.243 295.5C451.75 295.593 452.25 295.72 452.743 295.88L451.403 299.72C450.977 299.6 450.577 299.513 450.203 299.46C449.83 299.393 449.417 299.36 448.963 299.36C447.43 299.36 446.103 299.933 444.983 301.08C443.877 302.227 443.003 303.853 442.363 305.96V313.8H446.623V317H434.783ZM448.783 303.66V298.46L449.343 295.88H452.743L451.983 303.66H448.783ZM463.048 298.4C463.781 297.44 464.634 296.687 465.608 296.14C466.594 295.593 467.674 295.32 468.848 295.32C470.701 295.32 472.201 295.78 473.348 296.7C474.508 297.607 475.354 298.893 475.888 300.56C476.434 302.213 476.708 304.16 476.708 306.4C476.708 308.547 476.388 310.46 475.748 312.14C475.108 313.82 474.161 315.14 472.908 316.1C471.668 317.06 470.134 317.54 468.308 317.54C465.948 317.54 464.094 316.667 462.748 314.92L462.508 317H458.568V287.4L463.048 286.9V298.4ZM467.188 314.12C468.708 314.12 469.881 313.5 470.708 312.26C471.548 311.02 471.968 309.073 471.968 306.42C471.968 304.62 471.801 303.16 471.468 302.04C471.134 300.907 470.641 300.08 469.988 299.56C469.348 299.04 468.561 298.78 467.628 298.78C466.628 298.78 465.748 299.08 464.988 299.68C464.228 300.28 463.581 300.987 463.048 301.8V311.68C463.541 312.44 464.134 313.04 464.828 313.48C465.534 313.907 466.321 314.12 467.188 314.12ZM494.092 295.88V313.72H499.832V317H483.292V313.72H489.612V299.16H483.492V295.88H494.092ZM490.972 285.54C491.852 285.54 492.559 285.807 493.092 286.34C493.639 286.873 493.912 287.54 493.912 288.34C493.912 289.14 493.639 289.813 493.092 290.36C492.559 290.907 491.852 291.18 490.972 291.18C490.119 291.18 489.419 290.907 488.872 290.36C488.326 289.813 488.052 289.14 488.052 288.34C488.052 287.54 488.326 286.873 488.872 286.34C489.419 285.807 490.119 285.54 490.972 285.54ZM524.177 315.88C523.403 316.373 522.477 316.773 521.397 317.08C520.317 317.387 519.19 317.54 518.017 317.54C515.563 317.54 513.697 316.907 512.417 315.64C511.15 314.36 510.517 312.68 510.517 310.6V299.14H505.817V295.88H510.517V291.16L514.997 290.62V295.88H522.117L521.617 299.14H514.997V310.56C514.997 311.693 515.277 312.54 515.837 313.1C516.41 313.647 517.343 313.92 518.637 313.92C519.41 313.92 520.123 313.827 520.777 313.64C521.43 313.453 522.023 313.213 522.557 312.92L524.177 315.88Z" fill="white"/>
</svg>
